<?xml version="1.0" encoding="UTF-8" standalone="no"?>
<!DOCTYPE svg PUBLIC "-//W3C//DTD SVG 1.1//EN" "http://www.w3.org/Graphics/SVG/1.1/DTD/svg11.dtd">
<svg width="100%" height="100%" viewBox="0 0 1081 1035" version="1.1" xmlns="http://www.w3.org/2000/svg" xmlns:xlink="http://www.w3.org/1999/xlink" xml:space="preserve" xmlns:serif="http://www.serif.com/" style="fill-rule:evenodd;clip-rule:evenodd;stroke-linejoin:round;stroke-miterlimit:2;">
    <g transform="matrix(1,0,0,1,-490.713061,-515.2925)">
        <g transform="matrix(8.333333,0,0,8.333333,0,0)">
            <g transform="matrix(1,0,0,1,112.7041,93.5491)">
                <path d="M0,60.701C1.294,62.94 1.488,65.46 0.223,67.714L-13.646,92.415L-53.102,24.818C-54.064,23.125 -54.057,21.056 -53.083,19.369L-39.121,-4.809L-39.151,-4.851C-37.898,-7.046 -38.698,-9.347 -39.329,-10.583L-39.864,-11.483C-39.868,-11.488 -39.877,-11.5 -39.877,-11.5L-39.871,-11.494L-47.439,-24.212C-49.414,-27.529 -46.997,-31.714 -43.106,-31.714L30.416,-31.714C33.532,-31.714 36.408,-30.055 37.944,-27.372L51.037,-4.51L-33.042,-4.51C-36.513,-4.545 -35.915,-0.967 -35.778,-0.314L0,60.701ZM22.646,10.997C21.732,9.481 20.083,8.549 18.3,8.541L-19.232,8.569L-5.391,31.503C-4.45,33.065 -2.75,34.025 -0.912,34.034L36.57,34.075L22.646,10.997ZM31.479,28.264L47.972,28.246C48.781,28.242 49.529,27.82 49.943,27.132L56.034,17.04L39.518,17.028C38.733,17.032 38.008,17.442 37.606,18.109L31.479,28.264ZM75.831,61.433L38.349,61.393C36.511,61.385 34.812,60.424 33.871,58.862L24.564,43.44C24.226,42.881 23.407,42.881 23.069,43.44L18.533,50.956C18.119,51.643 17.371,52.066 16.563,52.069L0.069,52.087L6.196,41.932C6.598,41.265 7.324,40.855 8.109,40.851L21.473,40.861C22.149,40.862 22.568,40.133 22.221,39.558L20.03,35.928L57.561,35.9C59.345,35.908 60.994,36.84 61.907,38.356L75.831,61.433Z" style="fill:white;fill-rule:nonzero;"/>
            </g>
        </g>
    </g>
</svg>
